<?xml version="1.0" encoding="utf-8"?>
<!-- Generator: Adobe Illustrator 19.2.0, SVG Export Plug-In . SVG Version: 6.00 Build 0)  -->
<svg version="1.1" id="Layer_1" xmlns="http://www.w3.org/2000/svg" xmlns:xlink="http://www.w3.org/1999/xlink" x="0px" y="0px"
	 viewBox="0 0 305 178" style="enable-background:new 0 0 305 178;" xml:space="preserve">
<style type="text/css">
	.st0{fill:#FF0000;}
	.st1{fill:#FFFFFF;}
	.st2{fill:#161616;}
</style>
<g>
	<g>
		
			<image style="overflow:visible;opacity:0.75;" width="93" height="105" xlink:href="9B159906.png"  transform="matrix(1 0 0 1 1 -6.494)">
		</image>
		<g>
			<polygon class="st0" points="71.7,75.7 9.3,75.7 9.3,52.7 41,19.5 11.5,19.5 11.5,1.7 69.1,1.7 69.1,22.8 35.7,57.9 71.7,57.9 
							"/>
		</g>
	</g>
	<g>
		
			<image style="overflow:visible;opacity:0.75;" width="88" height="105" xlink:href="9B15990A.png"  transform="matrix(1 0 0 1 70 -6.494)">
		</image>
		<g>
			<polygon class="st0" points="135.5,57.9 135.5,75.7 78.7,75.7 78.7,1.7 133.9,1.7 133.9,19.5 101.4,19.5 101.4,30.2 126.3,30.2 
				126.3,46.7 101.4,46.7 101.4,57.9 			"/>
		</g>
	</g>
	<g>
		
			<image style="overflow:visible;opacity:0.75;" width="99" height="105" xlink:href="9B15990B.png"  transform="matrix(1 0 0 1 134 -6.494)">
		</image>
		<g>
			<path class="st0" d="M205.6,63.7c0.6,1.5,4.7,12.1,4.7,12.1h-24.4c0,0-3.7-9.4-4.6-11.7c-1.8-4.8-3.5-9.9-10.9-9.9h-5.5v21.7
				h-22.7v-74h34.3c20.3,0,30.4,11.4,30.4,24.5c0,14.2-10.5,19.2-13.5,20.1C196.3,47.9,199.8,48.9,205.6,63.7 M184.4,28.3
				c0-4.5-3.5-8.9-9.6-8.9h-9.9v17.9h9.9C180.8,37.3,184.4,33.2,184.4,28.3"/>
		</g>
	</g>
	<g>
		
			<image style="overflow:visible;opacity:0.75;" width="112" height="108" xlink:href="9B15990C.png"  transform="matrix(1 0 0 1 202 -8.494)">
		</image>
		<g>
			<path class="st0" d="M250.9,0C275.9,0,291,16.6,291,38.7c0,20.3-13.4,38.7-40.1,38.7c-26.3,0-40-17.9-40-38.7
				C210.9,16.7,225.8,0,250.9,0 M250.9,18.4c-10.5,0-16.7,9.3-16.7,20.3s6,20.2,16.7,20.2c10,0,16.8-8.3,16.8-20.2
				C267.7,28.2,262.1,18.4,250.9,18.4"/>
		</g>
	</g>
	<g>
		
			<image style="overflow:visible;opacity:0.75;" width="56" height="57" xlink:href="9B15990D.png"  transform="matrix(1 0 0 1 1 76.506)">
		</image>
		<g>
			<polygon class="st1" points="34.2,84.6 34.2,110.5 25.5,110.5 16.3,94.3 16.3,110.5 9,110.5 9,84.6 18.7,84.6 26.9,99.1 
				26.9,84.6 			"/>
		</g>
	</g>
	<g>
		
			<image style="overflow:visible;opacity:0.75;" width="50" height="57" xlink:href="9B159908.png"  transform="matrix(1 0 0 1 29 76.506)">
		</image>
		<g>
			<polygon class="st1" points="56.9,104.3 56.9,110.5 37.1,110.5 37.1,84.6 56.3,84.6 56.3,90.9 45,90.9 45,94.6 53.7,94.6 
				53.7,100.4 45,100.4 45,104.3 			"/>
		</g>
	</g>
	<g>
		
			<image style="overflow:visible;opacity:0.75;" width="57" height="57" xlink:href="9B159909.png"  transform="matrix(1 0 0 1 50 76.506)">
		</image>
		<g>
			<polygon class="st1" points="77,84.6 85,84.6 77.7,110.5 66.2,110.5 58.6,84.6 66.9,84.6 72,103.1 			"/>
		</g>
	</g>
	<g>
		
			<image style="overflow:visible;opacity:0.75;" width="50" height="57" xlink:href="9B159918.png"  transform="matrix(1 0 0 1 79 76.506)">
		</image>
		<g>
			<polygon class="st1" points="106.9,104.3 106.9,110.5 87.2,110.5 87.2,84.6 106.4,84.6 106.4,90.9 95.1,90.9 95.1,94.6 
				103.7,94.6 103.7,100.4 95.1,100.4 95.1,104.3 			"/>
		</g>
	</g>
	<g>
		
			<image style="overflow:visible;opacity:0.75;" width="55" height="57" xlink:href="9B159919.png"  transform="matrix(1 0 0 1 101 76.506)">
		</image>
		<g>
			<path class="st1" d="M131.5,106.3c0.2,0.5,1.7,4.2,1.7,4.2h-8.5c0,0-1.3-3.3-1.6-4.1c-0.6-1.7-1.2-3.5-3.8-3.5h-1.9v7.6h-7.9
				V84.6h12c7.1,0,10.6,4,10.6,8.6c0.2,3.1-1.8,6-4.7,7C128.2,100.8,129.5,101.1,131.5,106.3 M124.1,94c0-1.7-1.4-3.1-3.2-3.1
				c-0.1,0-0.1,0-0.2,0h-3.5v6.2h3.5c1.7,0.1,3.2-1.2,3.3-2.9C124.1,94.1,124.1,94,124.1,94"/>
		</g>
	</g>
	<g>
		
			<image style="overflow:visible;opacity:0.75;" width="55" height="57" xlink:href="6A1F1D5E.png"  transform="matrix(1 0 0 1 132 76.506)">
		</image>
		<g>
			<polygon class="st1" points="164,84.6 164,90.9 156.4,90.9 156.4,110.5 148.5,110.5 148.5,90.9 140.9,90.9 140.9,84.6 			"/>
		</g>
	</g>
	<g>
		
			<image style="overflow:visible;opacity:0.75;" width="60" height="57" xlink:href="6A1F1D5A.png"  transform="matrix(1 0 0 1 151 76.506)">
		</image>
		<g>
			<path class="st1" d="M188.8,110.5h-8.1l-1.7-4.7h-10l-1.7,4.7h-7.7l9.3-25.9h10.6L188.8,110.5z M171,99.9h6.2l-3.1-8.5L171,99.9z
				"/>
		</g>
	</g>
	<g>
		
			<image style="overflow:visible;opacity:0.75;" width="54" height="58" xlink:href="6A1F1D59.png"  transform="matrix(1 0 0 1 181 75.506)">
		</image>
		<g>
			<path class="st1" d="M213,102.7c0,4.4-3.4,8.4-11.5,8.4c-8.2,0-11.6-4.6-12.3-5.4l4.5-4.1c2.1,2.2,4.9,3.5,7.9,3.6
				c2,0,3.3-0.9,3.3-2.1c0-0.9-0.7-1.8-2.6-2.2c-0.7-0.1-4.1-0.9-4.9-1c-4.1-0.8-7-3.1-7-7.5c0-5.1,4.3-8.3,11.1-8.3
				c7.3,0,10.6,4.1,11,4.7l-4.5,4.1c-0.9-0.7-3.4-3-6.8-3c-2,0-2.9,0.9-2.9,2c0,1,0.7,1.9,2.6,2.3c0.6,0.1,4,0.8,4.7,1
				C210,96.1,213,99,213,102.7"/>
		</g>
	</g>
	<g>
		
			<image style="overflow:visible;opacity:0.75;" width="54" height="57" xlink:href="6A1F1D56.png"  transform="matrix(1 0 0 1 206 76.506)">
		</image>
		<g>
			<polygon class="st1" points="237.9,84.6 237.9,90.9 230.3,90.9 230.3,110.5 222.4,110.5 222.4,90.9 214.8,90.9 214.8,84.6 			"/>
		</g>
	</g>
	<g>
		
			<image style="overflow:visible;opacity:0.75;" width="51" height="57" xlink:href="6A1F1D49.png"  transform="matrix(1 0 0 1 232 76.506)">
		</image>
		<g>
			<polygon class="st1" points="260.6,104.3 260.6,110.5 240.9,110.5 240.9,84.6 260.1,84.6 260.1,90.9 248.8,90.9 248.8,94.6 
				257.4,94.6 257.4,100.4 248.8,100.4 248.8,104.3 			"/>
		</g>
	</g>
	<g>
		
			<image style="overflow:visible;opacity:0.75;" width="56" height="57" xlink:href="6A1F1D4E.png"  transform="matrix(1 0 0 1 255 76.506)">
		</image>
		<g>
			<path class="st1" d="M263.8,110.5V84.6H274c9.8,0,15,5.7,15,12.9c0,7.1-5,12.9-15,12.9L263.8,110.5z M271.7,90.9v13.4h1.8
				c5.6,0,7.4-3.3,7.4-6.7c0-3.7-2.1-6.7-7.4-6.7H271.7z"/>
		</g>
	</g>
	<g>
		
			<image style="overflow:visible;opacity:0.75;" width="70" height="74" xlink:href="6A1F1D4C.png"  transform="matrix(1 0 0 1 -3 108.506)">
		</image>
		<g>
			<path class="st2" d="M44.2,147c0,7.1-5.5,13.5-18.4,13.5c-13.1,0-18.6-7.4-19.8-8.7l7.3-6.6c3.3,3.6,7.9,5.7,12.8,5.8
				c3.1,0,5.3-1.4,5.3-3.4c0-1.4-1.1-2.9-4.3-3.5c-1.1-0.2-6.6-1.4-7.9-1.7C12.6,141.2,8,137.5,8,130.4c0-8.2,6.9-13.4,17.8-13.4
				c11.7,0,17,6.6,17.7,7.5l-7.2,6.6c-1.5-1.1-5.5-4.7-10.9-4.7c-3.3,0-4.7,1.4-4.7,3.3c0,1.6,1.2,3,4.2,3.7
				c0.9,0.2,6.4,1.3,7.6,1.5C39.5,136.3,44.2,141.1,44.2,147"/>
		</g>
	</g>
	<g>
		
			<image style="overflow:visible;opacity:0.75;" width="76" height="74" xlink:href="6A1F1D44.png"  transform="matrix(1 0 0 1 38 108.506)">
		</image>
		<g>
			<path class="st2" d="M69.4,117c14.1,0,22.5,9.3,22.5,21.7c0,11.4-7.5,21.7-22.5,21.7c-14.8,0-22.5-10-22.5-21.7
				C46.9,126.4,55.3,117,69.4,117 M69.4,127.4c-5.9,0-9.4,5.2-9.4,11.4s3.4,11.3,9.4,11.3c5.6,0,9.5-4.6,9.5-11.3
				C78.8,132.9,75.6,127.4,69.4,127.4"/>
		</g>
	</g>
	<g>
		
			<image style="overflow:visible;opacity:0.75;" width="73" height="74" xlink:href="6A1F1D45.png"  transform="matrix(1 0 0 1 96 108.506)">
		</image>
		<g>
			<path class="st2" d="M146.7,154.8c-1.5,1.1-7.2,5.7-18.9,5.7c-15.5,0-23.5-10.3-23.5-21.8c0-12.4,9.3-21.6,22.5-21.6
				c10.7,0,16.4,6.1,18.3,9.5l-9.6,6.5c-0.5-1-3-5.6-8.7-5.6c-6,0-9.5,5.1-9.5,11.3c0,6.2,3.5,11.5,10.6,11.5
				c2.4,0.1,4.8-0.4,6.9-1.4v-4.4h-6.4v-8.4h18.2L146.7,154.8z"/>
		</g>
	</g>
	<g>
		
			<image style="overflow:visible;opacity:0.75;" width="76" height="74" xlink:href="6A1F1D46.png"  transform="matrix(1 0 0 1 143 108.506)">
		</image>
		<g>
			<path class="st2" d="M173.5,117c14.1,0,22.5,9.3,22.5,21.7c0,11.4-7.5,21.7-22.5,21.7c-14.8,0-22.5-10-22.5-21.7
				C151.1,126.4,159.5,117,173.5,117 M173.5,127.4c-5.9,0-9.4,5.2-9.4,11.4s3.4,11.3,9.4,11.3c5.6,0,9.5-4.6,9.5-11.3
				C183,132.9,179.8,127.4,173.5,127.4"/>
		</g>
	</g>
	<g>
		
			<image style="overflow:visible;opacity:0.75;" width="76" height="74" xlink:href="6A1F1D6F.png"  transform="matrix(1 0 0 1 192 108.506)">
		</image>
		<g>
			<path class="st2" d="M222.7,117c14.1,0,22.5,9.3,22.5,21.7c0,11.4-7.5,21.7-22.5,21.7c-14.8,0-22.5-10-22.5-21.7
				C200.2,126.4,208.6,117,222.7,117 M222.7,127.4c-5.9,0-9.4,5.2-9.4,11.4s3.4,11.3,9.4,11.3c5.6,0,9.5-4.6,9.5-11.3
				C232.1,132.9,228.9,127.4,222.7,127.4"/>
		</g>
	</g>
	<g>
		
			<image style="overflow:visible;opacity:0.75;" width="72" height="73" xlink:href="6A1F1D6C.png"  transform="matrix(1 0 0 1 241 109.506)">
		</image>
		<g>
			<path class="st2" d="M249.6,159.6V118H266c15.7,0,24.1,9.1,24.1,20.8c0,11.4-8.1,20.8-24.1,20.8H249.6z M262.3,128v21.6h3
				c8.9,0,11.9-5.3,11.9-10.7c0-5.9-3.3-10.8-11.9-10.8L262.3,128z"/>
		</g>
	</g>
</g>
</svg>
